<svg width="15" height="17" viewBox="0 0 15 17" fill="none" xmlns="http://www.w3.org/2000/svg">
<path d="M7.5 0C9.48912 0 11.3968 0.709442 12.8033 1.97226C14.2098 3.23507 15 4.94781 15 6.7337C15 9.57913 12.7731 12.6801 8.37692 16.0697C8.13248 16.2583 7.82081 16.3618 7.49856 16.3616C7.17631 16.3613 6.86484 16.2573 6.62077 16.0683L6.33 15.8418C2.12846 12.5406 0 9.51559 0 6.7337C0 4.94781 0.790176 3.23507 2.1967 1.97226C3.60322 0.709442 5.51088 0 7.5 0ZM7.5 1.03595C5.81689 1.03595 4.20273 1.63625 3.01259 2.70479C1.82246 3.77332 1.15385 5.22257 1.15385 6.7337C1.15385 9.15231 3.11385 11.939 7.08769 15.0607L7.37461 15.2838C7.4095 15.3107 7.45399 15.3255 7.5 15.3255C7.54601 15.3255 7.5905 15.3107 7.62538 15.2838C11.7915 12.0709 13.8462 9.20963 13.8462 6.7337C13.8462 5.98546 13.682 5.24455 13.3631 4.55327C13.0442 3.86199 12.5767 3.23387 11.9874 2.70479C11.3981 2.1757 10.6985 1.75601 9.92857 1.46967C9.15862 1.18333 8.33339 1.03595 7.5 1.03595ZM7.5 4.14382C8.26505 4.14382 8.99876 4.41668 9.53973 4.90238C10.0807 5.38808 10.3846 6.04682 10.3846 6.7337C10.3846 7.42058 10.0807 8.07933 9.53973 8.56503C8.99876 9.05073 8.26505 9.32359 7.5 9.32359C6.73495 9.32359 6.00124 9.05073 5.46027 8.56503C4.9193 8.07933 4.61538 7.42058 4.61538 6.7337C4.61538 6.04682 4.9193 5.38808 5.46027 4.90238C6.00124 4.41668 6.73495 4.14382 7.5 4.14382ZM7.5 5.17977C7.04097 5.17977 6.60074 5.34349 6.27616 5.63491C5.95158 5.92633 5.76923 6.32158 5.76923 6.7337C5.76923 7.14583 5.95158 7.54108 6.27616 7.8325C6.60074 8.12392 7.04097 8.28763 7.5 8.28763C7.95903 8.28763 8.39925 8.12392 8.72384 7.8325C9.04842 7.54108 9.23077 7.14583 9.23077 6.7337C9.23077 6.32158 9.04842 5.92633 8.72384 5.63491C8.39925 5.34349 7.95903 5.17977 7.5 5.17977Z" fill="#0AB0E4"/>
</svg>
