<svg width="15" height="17" viewBox="0 0 15 17" fill="none" xmlns="http://www.w3.org/2000/svg">
<path d="M7.5 0C9.48913 0 11.3968 0.716398 12.8033 1.99159C14.2098 3.26679 15 4.99633 15 6.79973C15 9.67305 12.7731 12.8044 8.37693 16.2273C8.13248 16.4177 7.82082 16.5222 7.49857 16.522C7.17631 16.5217 6.86485 16.4167 6.62077 16.2259L6.33 15.9971C2.12846 12.6635 0 9.60888 0 6.79973C0 4.99633 0.790177 3.26679 2.1967 1.99159C3.60322 0.716398 5.51088 0 7.5 0ZM7.5 1.04611C5.8169 1.04611 4.20273 1.65229 3.01259 2.73131C1.82246 3.81032 1.15385 5.27377 1.15385 6.79973C1.15385 9.24205 3.11385 12.0561 7.0877 15.2084L7.37462 15.4336C7.40951 15.4608 7.45399 15.4758 7.5 15.4758C7.54602 15.4758 7.5905 15.4608 7.62539 15.4336C11.7915 12.1893 13.8462 9.29993 13.8462 6.79973C13.8462 6.04415 13.682 5.29597 13.3631 4.59791C13.0442 3.89985 12.5767 3.26558 11.9874 2.73131C11.3981 2.19703 10.6985 1.77323 9.92857 1.48408C9.15862 1.19493 8.33339 1.04611 7.5 1.04611ZM7.5 4.18445C8.26505 4.18445 8.99877 4.45998 9.53974 4.95044C10.0807 5.4409 10.3846 6.10611 10.3846 6.79973C10.3846 7.49334 10.0807 8.15855 9.53974 8.64901C8.99877 9.13947 8.26505 9.415 7.5 9.415C6.73496 9.415 6.00124 9.13947 5.46027 8.64901C4.9193 8.15855 4.61539 7.49334 4.61539 6.79973C4.61539 6.10611 4.9193 5.4409 5.46027 4.95044C6.00124 4.45998 6.73496 4.18445 7.5 4.18445ZM7.5 5.23056C7.04098 5.23056 6.60075 5.39588 6.27617 5.69016C5.95158 5.98443 5.76923 6.38356 5.76923 6.79973C5.76923 7.21589 5.95158 7.61502 6.27617 7.90929C6.60075 8.20357 7.04098 8.36889 7.5 8.36889C7.95903 8.36889 8.39926 8.20357 8.72384 7.90929C9.04843 7.61502 9.23077 7.21589 9.23077 6.79973C9.23077 6.38356 9.04843 5.98443 8.72384 5.69016C8.39926 5.39588 7.95903 5.23056 7.5 5.23056Z" fill="#009FFF"/>
</svg>
