<svg width="40" height="40" viewBox="0 0 40 40" fill="none" xmlns="http://www.w3.org/2000/svg">
<path d="M35 18.75V21.25C35 21.5815 34.8683 21.8995 34.6339 22.1339C34.3995 22.3683 34.0815 22.5 33.75 22.5H6.25C5.91848 22.5 5.60054 22.3683 5.36612 22.1339C5.1317 21.8995 5 21.5815 5 21.25V18.75C5 18.4185 5.1317 18.1005 5.36612 17.8661C5.60054 17.6317 5.91848 17.5 6.25 17.5H33.75C34.0815 17.5 34.3995 17.6317 34.6339 17.8661C34.8683 18.1005 35 18.4185 35 18.75ZM33.75 27.5H6.25C5.91848 27.5 5.60054 27.6317 5.36612 27.8661C5.1317 28.1005 5 28.4185 5 28.75V31.25C5 31.5815 5.1317 31.8995 5.36612 32.1339C5.60054 32.3683 5.91848 32.5 6.25 32.5H33.75C34.0815 32.5 34.3995 32.3683 34.6339 32.1339C34.8683 31.8995 35 31.5815 35 31.25V28.75C35 28.4185 34.8683 28.1005 34.6339 27.8661C34.3995 27.6317 34.0815 27.5 33.75 27.5ZM33.75 7.5H6.25C5.91848 7.5 5.60054 7.6317 5.36612 7.86612C5.1317 8.10054 5 8.41848 5 8.75V11.25C5 11.5815 5.1317 11.8995 5.36612 12.1339C5.60054 12.3683 5.91848 12.5 6.25 12.5H33.75C34.0815 12.5 34.3995 12.3683 34.6339 12.1339C34.8683 11.8995 35 11.5815 35 11.25V8.75C35 8.41848 34.8683 8.10054 34.6339 7.86612C34.3995 7.6317 34.0815 7.5 33.75 7.5Z" fill="black"/>
</svg>
