<svg width="30" height="30" viewBox="0 0 30 30" fill="none" xmlns="http://www.w3.org/2000/svg">
<path d="M18.3542 6.87856C17.6023 6.1127 16.7061 5.5034 15.7174 5.08585C14.7287 4.6683 13.667 4.45078 12.5938 4.44585C11.5205 4.44092 10.4569 4.64868 9.4644 5.05712C8.47188 5.46556 7.57012 6.0666 6.8112 6.82552C6.05228 7.58444 5.45125 8.4862 5.0428 9.47872C4.63436 10.4712 4.4266 11.5348 4.43153 12.6081C4.43646 13.6814 4.65399 14.743 5.07153 15.7317C5.48908 16.7205 6.09838 17.6167 6.86424 18.3686C8.39268 19.8692 10.4519 20.7055 12.5938 20.6957C14.7357 20.6858 16.7871 19.8306 18.3017 18.316C19.8163 16.8014 20.6715 14.75 20.6814 12.6081C20.6912 10.4662 19.8548 8.407 18.3542 6.87856ZM5.09674 5.11106C7.01277 3.19551 9.58819 2.08428 12.2963 2.0046C15.0045 1.92492 17.6408 2.88281 19.6661 4.6824C21.6915 6.48198 22.9528 8.9873 23.1922 11.686C23.4317 14.3848 22.6311 17.073 20.9542 19.2011L27.6355 25.8823L25.868 27.6498L19.1867 20.9686C17.058 22.6392 14.3721 23.4348 11.6768 23.1931C8.98158 22.9513 6.48013 21.6903 4.68271 19.6674C2.8853 17.6446 1.92736 15.0121 2.0043 12.3072C2.08124 9.60222 3.18726 7.02851 5.09674 5.11106Z" fill="#009FFF"/>
</svg>
